<svg width="25" height="26" viewBox="0 0 25 26" fill="none" xmlns="http://www.w3.org/2000/svg">
<path d="M2.89315 13.6249C2.89531 8.50789 7.20195 4.12959 12.4901 3.86824C17.7783 3.60689 22.0814 7.55968 22.0792 12.6767C22.0771 17.7937 17.7705 22.172 12.4823 22.4334C7.19411 22.6947 2.89099 18.7419 2.89315 13.6249ZM0.494886 13.7434C0.492184 20.1484 5.8621 25.0811 12.4813 24.754C19.1005 24.4269 24.4748 18.9631 24.4775 12.5582C24.4802 6.1532 19.1103 1.22047 12.4911 1.5476C5.87189 1.87473 0.497589 7.33846 0.494886 13.7434ZM12.4867 11.9905L7.69016 12.2275L7.68918 14.5482L12.4857 14.3111L12.4842 17.7921L17.2827 12.9137L12.4882 8.50952L12.4867 11.9905Z" fill="white"/>
</svg>
