<svg width="19" height="19" viewBox="0 0 19 19" fill="none" xmlns="http://www.w3.org/2000/svg">
<path d="M5.88223 14.92C4.87848 14.92 4.06635 15.7592 4.06635 16.785C4.06635 17.8108 4.87848 18.65 5.88223 18.65C6.88598 18.65 7.70723 17.8108 7.70723 16.785C7.70723 15.7592 6.88598 14.92 5.88223 14.92ZM0.407227 0V1.865H2.23223L5.51723 8.94268L4.28535 11.2273C4.13935 11.4884 4.05723 11.7961 4.05723 12.1225C4.05723 13.1482 4.87848 13.9875 5.88223 13.9875H16.8322V12.1225H6.26548C6.13773 12.1225 6.03735 12.0199 6.03735 11.8894L6.06473 11.7775L6.88598 10.2575H13.6841C14.3685 10.2575 14.9707 9.87518 15.281 9.29703L18.5477 3.2451C18.6207 3.11455 18.6572 2.95603 18.6572 2.7975C18.6572 2.28463 18.2466 1.865 17.7447 1.865H4.24885L3.3911 0H0.407227ZM15.0072 14.92C14.0035 14.92 13.1914 15.7592 13.1914 16.785C13.1914 17.8108 14.0035 18.65 15.0072 18.65C16.011 18.65 16.8322 17.8108 16.8322 16.785C16.8322 15.7592 16.011 14.92 15.0072 14.92Z" fill="#818181"/>
</svg>
