<svg width="17" height="18" viewBox="0 0 17 18" fill="none" xmlns="http://www.w3.org/2000/svg">
<path d="M4.72222 0.5C2.11839 0.5 0 2.61839 0 5.22222V12.7778C0 15.3816 2.11839 17.5 4.72222 17.5H12.2778C14.8816 17.5 17 15.3816 17 12.7778V5.22222C17 2.61839 14.8816 0.5 12.2778 0.5H4.72222ZM4.72222 2.38889H12.2778C13.8399 2.38889 15.1111 3.66011 15.1111 5.22222V12.7778C15.1111 14.3399 13.8399 15.6111 12.2778 15.6111H4.72222C3.16011 15.6111 1.88889 14.3399 1.88889 12.7778V5.22222C1.88889 3.66011 3.16011 2.38889 4.72222 2.38889ZM13.2222 3.33333C12.9717 3.33333 12.7315 3.43284 12.5544 3.60995C12.3773 3.78707 12.2778 4.0273 12.2778 4.27778C12.2778 4.52826 12.3773 4.76848 12.5544 4.9456C12.7315 5.12272 12.9717 5.22222 13.2222 5.22222C13.4727 5.22222 13.7129 5.12272 13.89 4.9456C14.0672 4.76848 14.1667 4.52826 14.1667 4.27778C14.1667 4.0273 14.0672 3.78707 13.89 3.60995C13.7129 3.43284 13.4727 3.33333 13.2222 3.33333ZM8.5 4.27778C5.89617 4.27778 3.77778 6.39617 3.77778 9C3.77778 11.6038 5.89617 13.7222 8.5 13.7222C11.1038 13.7222 13.2222 11.6038 13.2222 9C13.2222 6.39617 11.1038 4.27778 8.5 4.27778ZM8.5 6.16667C10.0621 6.16667 11.3333 7.43789 11.3333 9C11.3333 10.5621 10.0621 11.8333 8.5 11.8333C6.93789 11.8333 5.66667 10.5621 5.66667 9C5.66667 7.43789 6.93789 6.16667 8.5 6.16667Z" fill="white"/>
</svg>
