<svg width="20" height="19" viewBox="0 0 20 19" fill="none" xmlns="http://www.w3.org/2000/svg">
<mask id="path-1-inside-1_165_92" fill="white">
<path d="M13.6438 11.8553H12.7811L12.4753 11.5644C13.5455 10.3357 14.1898 8.74062 14.1898 7.00543C14.1898 3.13628 11.012 0 7.09151 0C3.17104 0 -0.00683594 3.13628 -0.00683594 7.00543C-0.00683594 10.8746 3.17104 14.0109 7.09151 14.0109C8.84971 14.0109 10.4659 13.375 11.7109 12.3188L12.0057 12.6206V13.472L17.466 18.85L19.0932 17.2441L13.6438 11.8553ZM7.09151 11.8553C4.3723 11.8553 2.17727 9.68905 2.17727 7.00543C2.17727 4.32181 4.3723 2.15552 7.09151 2.15552C9.81072 2.15552 12.0057 4.32181 12.0057 7.00543C12.0057 9.68905 9.81072 11.8553 7.09151 11.8553Z"/>
</mask>
<path d="M13.6438 11.8553H12.7811L12.4753 11.5644C13.5455 10.3357 14.1898 8.74062 14.1898 7.00543C14.1898 3.13628 11.012 0 7.09151 0C3.17104 0 -0.00683594 3.13628 -0.00683594 7.00543C-0.00683594 10.8746 3.17104 14.0109 7.09151 14.0109C8.84971 14.0109 10.4659 13.375 11.7109 12.3188L12.0057 12.6206V13.472L17.466 18.85L19.0932 17.2441L13.6438 11.8553ZM7.09151 11.8553C4.3723 11.8553 2.17727 9.68905 2.17727 7.00543C2.17727 4.32181 4.3723 2.15552 7.09151 2.15552C9.81072 2.15552 12.0057 4.32181 12.0057 7.00543C12.0057 9.68905 9.81072 11.8553 7.09151 11.8553Z" fill="#818181"/>
<path d="M13.6438 11.8553L175.367 -151.685L108.161 -218.145H13.6438V11.8553ZM12.7811 11.8553L-145.777 178.467L-79.1688 241.855H12.7811V11.8553ZM12.4753 11.5644L-160.956 -139.503L-305.512 26.4524L-146.083 178.176L12.4753 11.5644ZM11.7109 12.3188L176.22 -148.419L26.3937 -301.761L-137.085 -163.066L11.7109 12.3188ZM12.0057 12.6206H242.006V-81.0902L176.515 -148.118L12.0057 12.6206ZM12.0057 13.472H-217.994V109.765L-149.39 177.336L12.0057 13.472ZM17.466 18.85L-143.93 182.714L17.6277 341.838L179.026 182.552L17.466 18.85ZM19.0932 17.2441L180.653 180.947L346.36 17.4079L180.817 -146.296L19.0932 17.2441ZM13.6438 -218.145H12.7811V241.855H13.6438V-218.145ZM171.339 -154.756L171.033 -155.047L-146.083 178.176L-145.777 178.467L171.339 -154.756ZM185.907 162.632C221.772 121.457 244.19 66.7808 244.19 7.00543H-215.81C-215.81 -49.2996 -194.681 -100.786 -160.956 -139.503L185.907 162.632ZM244.19 7.00543C244.19 -126.737 135.171 -230 7.09151 -230V230C-113.147 230 -215.81 133.009 -215.81 7.00543H244.19ZM7.09151 -230C-120.988 -230 -230.007 -126.737 -230.007 7.00543H229.993C229.993 133.009 127.33 230 7.09151 230V-230ZM-230.007 7.00543C-230.007 140.748 -120.988 244.011 7.09151 244.011V-215.989C127.33 -215.989 229.993 -118.998 229.993 7.00543H-230.007ZM7.09151 244.011C65.1445 244.011 119.088 222.843 160.507 187.703L-137.085 -163.066C-98.1561 -196.093 -47.4451 -215.989 7.09151 -215.989V244.011ZM-152.798 173.057L-152.503 173.359L176.515 -148.118L176.22 -148.419L-152.798 173.057ZM-217.994 12.6206V13.472H242.006V12.6206H-217.994ZM-149.39 177.336L-143.93 182.714L178.862 -145.014L173.401 -150.392L-149.39 177.336ZM179.026 182.552L180.653 180.947L-142.467 -146.458L-144.094 -144.852L179.026 182.552ZM180.817 -146.296L175.367 -151.685L-148.08 175.396L-142.63 180.785L180.817 -146.296ZM7.09151 -218.145C128.531 -218.145 232.177 -120.184 232.177 7.00543H-227.823C-227.823 139.562 -119.787 241.855 7.09151 241.855V-218.145ZM232.177 7.00543C232.177 134.195 128.531 232.156 7.09151 232.156V-227.844C-119.787 -227.844 -227.823 -125.551 -227.823 7.00543H232.177ZM7.09151 232.156C-114.348 232.156 -217.994 134.195 -217.994 7.00543H242.006C242.006 -125.551 133.97 -227.844 7.09151 -227.844V232.156ZM-217.994 7.00543C-217.994 -120.184 -114.348 -218.145 7.09151 -218.145V241.855C133.97 241.855 242.006 139.562 242.006 7.00543H-217.994Z" fill="#818181" mask="url(#path-1-inside-1_165_92)"/>
</svg>
